<svg width="536" height="600" viewBox="0 0 536 600" fill="none" xmlns="http://www.w3.org/2000/svg">
<path d="M66.75 225C64.5833 225 63.5 223.917 63.5 221.75V64.5C63.5 62.3333 64.5833 61.25 66.75 61.25H119.75C139.917 61.25 155.083 64.5833 165.25 71.25C175.583 77.9167 180.75 88 180.75 101.5C180.75 111.167 178.583 118.917 174.25 124.75C169.917 130.417 163.25 134.917 154.25 138.25V139C164.917 141 173.167 145.083 179 151.25C184.833 157.417 187.75 166.083 187.75 177.25C187.75 194.083 182.333 206.25 171.5 213.75C160.833 221.25 143.5 225 119.5 225H66.75ZM99.25 195.75H121C132 195.75 139.917 194.25 144.75 191.25C149.583 188.083 152 182.75 152 175.25C152 168.25 149.5 163.083 144.5 159.75C139.667 156.417 131.833 154.75 121 154.75H99.25V195.75ZM99.25 128.5H119C128.167 128.5 134.75 126.917 138.75 123.75C142.917 120.417 145 115.417 145 108.75C145 102.417 142.75 97.75 138.25 94.75C133.917 91.75 127 90.25 117.5 90.25H99.25V128.5ZM372.17 225C370.003 225 368.92 223.917 368.92 221.75V57.5C368.92 55.3333 370.003 54.25 372.17 54.25H400.42C402.587 54.25 403.67 55.3333 403.67 57.5V221.75C403.67 223.917 402.587 225 400.42 225H372.17ZM129 528C106.5 528 89.4167 522.583 77.75 511.75C66.25 500.917 60.5 485.167 60.5 464.5V421.75C60.5 400.917 66.25 385.167 77.75 374.5C89.4167 363.667 106.5 358.25 129 358.25C151.667 358.25 168.75 363.667 180.25 374.5C191.917 385.167 197.75 400.917 197.75 421.75V464.5C197.75 485.167 191.917 500.917 180.25 511.75C168.75 522.583 151.667 528 129 528ZM129 497C140.167 497 148.417 494.083 153.75 488.25C159.25 482.25 162 473.667 162 462.5V423.75C162 412.583 159.25 404.083 153.75 398.25C148.417 392.25 140.167 389.25 129 389.25C118.167 389.25 110 392.25 104.5 398.25C99 404.083 96.25 412.583 96.25 423.75V462.5C96.25 473.667 99 482.25 104.5 488.25C110 494.083 118.167 497 129 497ZM392.557 528C380.223 528 369.307 525.667 359.807 521C350.473 516.167 343.14 509.083 337.807 499.75C332.473 490.25 329.807 478.5 329.807 464.5V421.75C329.807 400.75 335.89 384.917 348.057 374.25C360.223 363.583 376.973 358.25 398.307 358.25C413.807 358.25 426.723 360.667 437.057 365.5C447.557 370.333 455.14 376.917 459.807 385.25C464.64 393.583 466.39 403.083 465.057 413.75C464.723 415.75 463.557 416.75 461.557 416.75H432.307C430.307 416.75 429.39 415.583 429.557 413.25C429.723 408.25 428.723 404 426.557 400.5C424.557 396.833 421.223 394 416.557 392C412.057 390 406.223 389 399.057 389C388.057 389 379.723 391.75 374.057 397.25C368.39 402.75 365.557 411.417 365.557 423.25V463C365.557 474.833 368.39 483.5 374.057 489C379.723 494.5 388.14 497.25 399.307 497.25C409.807 497.25 417.723 494.917 423.057 490.25C428.557 485.583 431.307 478.917 431.307 470.25V463.25H400.807C398.64 463.25 397.557 462.167 397.557 460V441.25C397.557 439.083 398.64 438 400.807 438H462.307C463.307 438 464.057 438.333 464.557 439C465.057 439.5 465.307 440.25 465.307 441.25V485.25C465.307 491.083 465.39 497.25 465.557 503.75C465.89 510.25 466.557 516.167 467.557 521.5C467.89 522.5 467.723 523.333 467.057 524C466.39 524.667 465.557 525 464.557 525H441.057C440.223 525 439.557 524.75 439.057 524.25C438.557 523.75 438.14 523.083 437.807 522.25C437.473 520.25 437.14 517.833 436.807 515C436.64 512 436.473 509.25 436.307 506.75H435.807C433.14 510.917 429.807 514.667 425.807 518C421.973 521.167 417.307 523.583 411.807 525.25C406.307 527.083 399.89 528 392.557 528Z" fill="#23CB9F"/>
</svg>
