<svg width="536" height="600" viewBox="0 0 536 600" fill="none" xmlns="http://www.w3.org/2000/svg">
<path d="M54.75 225C52.5833 225 51.5 223.917 51.5 221.75V64.5C51.5 62.3333 52.5833 61.25 54.75 61.25H154.5C156.667 61.25 157.75 62.3333 157.75 64.5V89.25C157.75 91.25 156.667 92.25 154.5 92.25H87.25V130H145C147.167 130 148.25 131.083 148.25 133.25V157C148.25 159.167 147.167 160.25 145 160.25H87.25V221.75C87.25 223.917 86.1667 225 84 225H54.75ZM316.6 225C314.266 225 313.433 223.833 314.1 221.5L367.1 63.75C367.766 62.0833 369.016 61.25 370.85 61.25H409.1C410.933 61.25 412.1 62.0833 412.6 63.75L466.1 221.5C466.433 222.5 466.35 223.333 465.85 224C465.516 224.667 464.766 225 463.6 225H431.35C429.516 225 428.35 224.167 427.85 222.5L399.1 125.75C397.433 120.083 395.85 114.417 394.35 108.75C392.85 102.917 391.35 97.1667 389.85 91.5H389.35C387.85 97.1667 386.35 102.917 384.85 108.75C383.35 114.417 381.766 120.083 380.1 125.75L351.85 222.25C351.35 224.083 350.183 225 348.35 225H316.6ZM355.1 193.25L361.1 164.75H417.35L423.85 193.25H355.1ZM150.25 571C142.083 571 135.167 568.917 129.5 564.75C123.833 560.75 119.5 554.667 116.5 546.5C113.667 538.333 112.5 527.833 113 515C113 514 113.25 513.25 113.75 512.75C114.417 512.083 115.25 511.75 116.25 511.75L140.25 512C141.083 512 141.75 512.333 142.25 513C142.917 513.5 143.25 514.25 143.25 515.25C143.25 521.417 143.583 526.583 144.25 530.75C145.083 535.083 146.5 538.333 148.5 540.5C150.667 542.667 153.583 543.75 157.25 543.75C158.917 543.75 160.5 543.583 162 543.25C163.5 542.917 164.917 542.583 166.25 542.25C167.417 541.917 168.25 542 168.75 542.5C169.417 543 169.75 543.833 169.75 545V563.5C169.75 565.5 168.833 566.833 167 567.5C165.333 568.333 163 569.083 160 569.75C157.167 570.583 153.917 571 150.25 571ZM117 528C94.5 528 77.4167 522.583 65.75 511.75C54.25 500.917 48.5 485.167 48.5 464.5V421.75C48.5 400.917 54.25 385.167 65.75 374.5C77.4167 363.667 94.5 358.25 117 358.25C139.667 358.25 156.75 363.667 168.25 374.5C179.917 385.167 185.75 400.917 185.75 421.75V464.5C185.75 485.167 179.917 500.917 168.25 511.75C156.75 522.583 139.667 528 117 528ZM117 497C128.167 497 136.417 494.083 141.75 488.25C147.25 482.25 150 473.667 150 462.5V423.75C150 412.583 147.25 404.083 141.75 398.25C136.417 392.25 128.167 389.25 117 389.25C106.167 389.25 98 392.25 92.5 398.25C87 404.083 84.25 412.583 84.25 423.75V462.5C84.25 473.667 87 482.25 92.5 488.25C98 494.083 106.167 497 117 497ZM425.615 528C410.949 528 398.949 526.083 389.615 522.25C380.449 518.417 373.782 512.833 369.615 505.5C365.615 498 364.115 488.833 365.115 478C365.282 475.167 366.449 473.75 368.615 473.75H397.115C399.282 473.75 400.365 475 400.365 477.5C400.199 484.167 402.282 489.25 406.615 492.75C410.949 496.083 417.699 497.75 426.865 497.75C435.865 497.75 442.449 496.417 446.615 493.75C450.949 491.083 453.115 487 453.115 481.5C453.115 478.833 452.615 476.5 451.615 474.5C450.615 472.5 448.865 470.667 446.365 469C443.865 467.333 440.449 465.667 436.115 464L400.115 448.25C391.782 444.75 385.199 440.917 380.365 436.75C375.532 432.417 372.115 427.5 370.115 422C368.115 416.5 367.115 410.167 367.115 403C367.282 388.667 372.115 377.667 381.615 370C391.282 362.167 405.615 358.25 424.615 358.25C438.449 358.25 450.032 360.083 459.365 363.75C468.865 367.417 475.782 372.833 480.115 380C484.615 387.167 486.365 396.167 485.365 407C485.199 409.833 484.115 411.25 482.115 411.25H453.365C452.365 411.25 451.532 410.917 450.865 410.25C450.365 409.417 450.199 408.333 450.365 407C450.865 401.333 448.865 396.75 444.365 393.25C439.865 389.75 433.449 388 425.115 388C417.782 388 412.199 389.333 408.365 392C404.699 394.5 402.782 398.25 402.615 403.25C402.615 405.75 403.115 408 404.115 410C405.282 412 407.115 413.917 409.615 415.75C412.282 417.417 415.782 419.167 420.115 421L455.865 436.25C464.199 439.917 470.782 443.833 475.615 448C480.449 452.167 483.865 457 485.865 462.5C487.865 468 488.865 474.5 488.865 482C488.699 497 483.615 508.417 473.615 516.25C463.615 524.083 447.615 528 425.615 528Z" fill="#23CB9F"/>
</svg>
