<svg width="385" height="467" viewBox="0 0 385 467" fill="none" xmlns="http://www.w3.org/2000/svg">
<path d="M13.5 206.75C10.5 207.25 8.66667 206.583 8 204.75L0.5 181C0.333333 179.833 0.583333 178.833 1.25 178C1.75 177.333 2.66667 176.833 4 176.5C8.16667 175.5 11.6667 173.583 14.5 170.75C17.3333 168.083 19.4167 164.417 20.75 159.75C22.25 154.917 23 149.083 23 142.25V6.5C23 4.33333 24.0833 3.24999 26.25 3.24999H55.5C57.6667 3.24999 58.75 4.33333 58.75 6.5V139.75C58.75 153.083 57.0833 164.5 53.75 174C50.4167 183.5 45.4167 190.917 38.75 196.25C32.0833 201.75 23.6667 205.25 13.5 206.75ZM316.039 170C293.539 170 276.456 164.583 264.789 153.75C253.289 142.917 247.539 127.167 247.539 106.5V63.75C247.539 42.9167 253.289 27.1667 264.789 16.5C276.456 5.66665 293.539 0.249986 316.039 0.249986C338.706 0.249986 355.789 5.66665 367.289 16.5C378.956 27.1667 384.789 42.9167 384.789 63.75V106.5C384.789 127.167 378.956 142.917 367.289 153.75C355.789 164.583 338.706 170 316.039 170ZM316.039 139C327.206 139 335.456 136.083 340.789 130.25C346.289 124.25 349.039 115.667 349.039 104.5V65.75C349.039 54.5833 346.289 46.0833 340.789 40.25C335.456 34.25 327.206 31.25 316.039 31.25C305.206 31.25 297.039 34.25 291.539 40.25C286.039 46.0833 283.289 54.5833 283.289 65.75V104.5C283.289 115.667 286.039 124.25 291.539 130.25C297.039 136.083 305.206 139 316.039 139ZM23.75 467C21.5833 467 20.5 465.917 20.5 463.75V306.5C20.5 304.333 21.5833 303.25 23.75 303.25H53C55.1667 303.25 56.25 304.333 56.25 306.5V463.75C56.25 465.917 55.1667 467 53 467H23.75ZM251.348 467C249.181 467 248.098 465.917 248.098 463.75V306.5C248.098 304.333 249.181 303.25 251.348 303.25H291.098C292.764 303.25 294.014 304 294.848 305.5L330.598 377.5C333.098 382.667 335.598 387.917 338.098 393.25C340.598 398.417 342.848 403.417 344.848 408.25C347.014 413.083 348.764 417.583 350.098 421.75H350.848C350.514 418.417 350.264 414.833 350.098 411C349.931 407 349.764 403 349.598 399C349.431 394.833 349.264 390.833 349.098 387C349.098 383 349.098 379.333 349.098 376V306.5C349.098 304.333 350.098 303.25 352.098 303.25H380.348C382.514 303.25 383.598 304.333 383.598 306.5V463.75C383.598 465.917 382.514 467 380.348 467H341.098C339.264 467 338.014 466.25 337.348 464.75L302.598 395.75C300.264 390.917 297.931 385.833 295.598 380.5C293.264 375 290.931 369.667 288.598 364.5C286.431 359.167 284.431 354.25 282.598 349.75H281.848C282.014 353.417 282.098 357.333 282.098 361.5C282.264 365.5 282.348 369.583 282.348 373.75C282.514 377.75 282.598 381.75 282.598 385.75C282.598 389.75 282.598 393.667 282.598 397.5V463.75C282.598 465.917 281.514 467 279.348 467H251.348Z" fill="#23CB9F"/>
</svg>
