<svg width="536" height="540" viewBox="0 0 536 540" fill="none" xmlns="http://www.w3.org/2000/svg">
<path d="M84.0254 136.8C75.2254 136.8 68.0254 135.65 62.4254 133.35C56.9254 131.05 52.9254 127.7 50.4254 123.3C48.0254 118.8 47.1254 113.3 47.7254 106.8C47.8254 105.1 48.5254 104.25 49.8254 104.25H66.9254C68.2254 104.25 68.8754 105 68.8754 106.5C68.7754 110.5 70.0254 113.55 72.6254 115.65C75.2254 117.65 79.2754 118.65 84.7754 118.65C90.1754 118.65 94.1254 117.85 96.6254 116.25C99.2254 114.65 100.525 112.2 100.525 108.9C100.525 107.3 100.225 105.9 99.6254 104.7C99.0254 103.5 97.9754 102.4 96.4754 101.4C94.9754 100.4 92.9254 99.4 90.3254 98.4L68.7254 88.95C63.7254 86.85 59.7754 84.55 56.8754 82.05C53.9754 79.45 51.9254 76.5 50.7254 73.2C49.5254 69.9 48.9254 66.1 48.9254 61.8C49.0254 53.2 51.9254 46.6 57.6254 42C63.4254 37.3 72.0254 34.95 83.4254 34.95C91.7254 34.95 98.6754 36.05 104.275 38.25C109.975 40.45 114.125 43.7 116.725 48C119.425 52.3 120.475 57.7 119.875 64.2C119.775 65.9 119.125 66.75 117.925 66.75H100.675C100.075 66.75 99.5754 66.55 99.1754 66.15C98.8754 65.65 98.7754 65 98.8754 64.2C99.1754 60.8 97.9754 58.05 95.2754 55.95C92.5754 53.85 88.7254 52.8 83.7254 52.8C79.3254 52.8 75.9754 53.6 73.6754 55.2C71.4754 56.7 70.3254 58.95 70.2254 61.95C70.2254 63.45 70.5254 64.8 71.1254 66C71.8254 67.2 72.9254 68.35 74.4254 69.45C76.0254 70.45 78.1254 71.5 80.7254 72.6L102.175 81.75C107.175 83.95 111.125 86.3 114.025 88.8C116.925 91.3 118.975 94.2 120.175 97.5C121.375 100.8 121.975 104.7 121.975 109.2C121.875 118.2 118.825 125.05 112.825 129.75C106.825 134.45 97.2254 136.8 84.0254 136.8ZM235.258 135C233.958 135 233.308 134.35 233.308 133.05V38.7C233.308 37.4 233.958 36.75 235.258 36.75H295.108C296.408 36.75 297.058 37.4 297.058 38.7V53.55C297.058 54.75 296.408 55.35 295.108 55.35H254.758V76.65H291.508C292.808 76.65 293.458 77.3 293.458 78.6V92.4C293.458 93.6 292.808 94.2 291.508 94.2H254.758V116.4H295.108C296.408 116.4 297.058 117 297.058 118.2V133.05C297.058 134.35 296.408 135 295.108 135H235.258ZM412.1 135C410.8 135 410.15 134.35 410.15 133.05V38.7C410.15 37.4 410.8 36.75 412.1 36.75H445.1C458.6 36.75 468.4 39.35 474.5 44.55C480.6 49.75 483.65 57.3 483.65 67.2C483.65 74 482.15 79.75 479.15 84.45C476.15 89.15 471.55 92.45 465.35 94.35V94.5L489.05 132.75C489.45 133.35 489.5 133.9 489.2 134.4C489 134.8 488.5 135 487.7 135H467.9C466.9 135 466.1 134.55 465.5 133.65L444.05 97.5H431.6V133.05C431.6 134.35 430.95 135 429.65 135H412.1ZM431.6 80.7H444.8C450.8 80.7 455.2 79.65 458 77.55C460.8 75.45 462.2 72.1 462.2 67.5C462.2 63 460.9 59.8 458.3 57.9C455.8 55.9 451.5 54.9 445.4 54.9H431.6V80.7ZM91.0344 315C89.8344 315 89.0844 314.5 88.7844 313.5L57.7344 218.85C57.3344 217.45 57.8844 216.75 59.3844 216.75H78.4344C79.6344 216.75 80.3844 217.25 80.6844 218.25L97.0344 274.65C98.0344 278.25 98.9844 281.9 99.8844 285.6C100.784 289.2 101.634 292.85 102.434 296.55H102.884C103.684 292.85 104.534 289.2 105.434 285.6C106.434 281.9 107.484 278.2 108.584 274.5L125.084 218.4C125.384 217.3 126.084 216.75 127.184 216.75H146.234C147.734 216.75 148.284 217.45 147.884 218.85L116.534 313.5C116.134 314.5 115.384 315 114.284 315H91.0344ZM256.498 315C255.198 315 254.548 314.35 254.548 313.05V218.7C254.548 217.4 255.198 216.75 256.498 216.75H274.048C275.348 216.75 275.998 217.4 275.998 218.7V313.05C275.998 314.35 275.348 315 274.048 315H256.498ZM430.107 316.8C417.107 316.8 407.057 313.65 399.957 307.35C392.857 300.95 389.307 291.4 389.307 278.7V253.35C389.307 240.45 392.857 230.85 399.957 224.55C407.157 218.15 417.257 214.95 430.257 214.95C439.357 214.95 447.107 216.4 453.507 219.3C459.907 222.2 464.607 226.35 467.607 231.75C470.707 237.05 471.757 243.3 470.757 250.5C470.657 251 470.457 251.5 470.157 252C469.857 252.4 469.407 252.6 468.807 252.6H451.107C449.907 252.6 449.357 251.95 449.457 250.65C449.557 245.35 448.057 241.15 444.957 238.05C441.957 234.95 437.157 233.4 430.557 233.4C424.257 233.4 419.357 235.1 415.857 238.5C412.457 241.8 410.757 246.95 410.757 253.95V277.8C410.757 284.8 412.457 290 415.857 293.4C419.357 296.7 424.257 298.35 430.557 298.35C437.357 298.35 442.257 296.75 445.257 293.55C448.357 290.25 449.757 286.1 449.457 281.1C449.357 279.8 449.907 279.15 451.107 279.15H468.657C469.857 279.15 470.557 279.85 470.757 281.25C471.457 288.45 470.257 294.75 467.157 300.15C464.057 305.45 459.357 309.55 453.057 312.45C446.757 315.35 439.107 316.8 430.107 316.8ZM147.863 495C146.563 495 145.913 494.35 145.913 493.05V398.7C145.913 397.4 146.563 396.75 147.863 396.75H207.713C209.013 396.75 209.663 397.4 209.663 398.7V413.55C209.663 414.75 209.013 415.35 207.713 415.35H167.363V436.65H204.113C205.413 436.65 206.063 437.3 206.063 438.6V452.4C206.063 453.6 205.413 454.2 204.113 454.2H167.363V476.4H207.713C209.013 476.4 209.663 477 209.663 478.2V493.05C209.663 494.35 209.013 495 207.713 495H147.863ZM354.854 496.8C346.054 496.8 338.854 495.65 333.254 493.35C327.754 491.05 323.754 487.7 321.254 483.3C318.854 478.8 317.954 473.3 318.554 466.8C318.654 465.1 319.354 464.25 320.654 464.25H337.754C339.054 464.25 339.704 465 339.704 466.5C339.604 470.5 340.854 473.55 343.454 475.65C346.054 477.65 350.104 478.65 355.604 478.65C361.004 478.65 364.954 477.85 367.454 476.25C370.054 474.65 371.354 472.2 371.354 468.9C371.354 467.3 371.054 465.9 370.454 464.7C369.854 463.5 368.804 462.4 367.304 461.4C365.804 460.4 363.754 459.4 361.154 458.4L339.554 448.95C334.554 446.85 330.604 444.55 327.704 442.05C324.804 439.45 322.754 436.5 321.554 433.2C320.354 429.9 319.754 426.1 319.754 421.8C319.854 413.2 322.754 406.6 328.454 402C334.254 397.3 342.854 394.95 354.254 394.95C362.554 394.95 369.504 396.05 375.104 398.25C380.804 400.45 384.954 403.7 387.554 408C390.254 412.3 391.304 417.7 390.705 424.2C390.604 425.9 389.954 426.75 388.754 426.75H371.504C370.904 426.75 370.404 426.55 370.004 426.15C369.704 425.65 369.604 425 369.704 424.2C370.004 420.8 368.804 418.05 366.104 415.95C363.404 413.85 359.554 412.8 354.554 412.8C350.154 412.8 346.804 413.6 344.504 415.2C342.304 416.7 341.154 418.95 341.054 421.95C341.054 423.45 341.354 424.8 341.954 426C342.654 427.2 343.754 428.35 345.254 429.45C346.854 430.45 348.954 431.5 351.554 432.6L373.004 441.75C378.004 443.95 381.954 446.3 384.854 448.8C387.754 451.3 389.804 454.2 391.004 457.5C392.204 460.8 392.804 464.7 392.804 469.2C392.704 478.2 389.654 485.05 383.654 489.75C377.654 494.45 368.054 496.8 354.854 496.8Z" fill="#23CB9F"/>
</svg>
