<svg width="536" height="545" viewBox="0 0 536 545" fill="none" xmlns="http://www.w3.org/2000/svg">
<path d="M49.38 126C48.26 126 47.7 125.393 47.7 124.18V51.66H24.04C22.92 51.66 22.36 51.1 22.36 49.98V36.12C22.36 34.9067 22.92 34.3 24.04 34.3H91.1C92.22 34.3 92.78 34.9067 92.78 36.12V49.98C92.78 51.1 92.22 51.66 91.1 51.66H67.58V124.18C67.58 125.393 66.9733 126 65.76 126H49.38ZM159.669 126C158.456 126 157.849 125.393 157.849 124.18V36.12C157.849 34.9067 158.456 34.3 159.669 34.3H215.529C216.743 34.3 217.349 34.9067 217.349 36.12V49.98C217.349 51.1 216.743 51.66 215.529 51.66H177.869V71.54H212.169C213.383 71.54 213.989 72.1467 213.989 73.36V86.24C213.989 87.36 213.383 87.92 212.169 87.92H177.869V108.64H215.529C216.743 108.64 217.349 109.2 217.349 110.32V124.18C217.349 125.393 216.743 126 215.529 126H159.669ZM321.671 127.68C309.538 127.68 300.158 124.74 293.531 118.86C286.905 112.887 283.591 103.973 283.591 92.12V68.46C283.591 56.42 286.905 47.46 293.531 41.58C300.251 35.6067 309.678 32.62 321.811 32.62C330.305 32.62 337.538 33.9733 343.511 36.68C349.485 39.3867 353.871 43.26 356.671 48.3C359.565 53.2467 360.545 59.08 359.611 65.8C359.518 66.2667 359.331 66.7333 359.051 67.2C358.771 67.5733 358.351 67.76 357.791 67.76H341.271C340.151 67.76 339.638 67.1533 339.731 65.94C339.825 60.9933 338.425 57.0733 335.531 54.18C332.731 51.2867 328.251 49.84 322.091 49.84C316.211 49.84 311.638 51.4267 308.371 54.6C305.198 57.68 303.611 62.4867 303.611 69.02V91.28C303.611 97.8133 305.198 102.667 308.371 105.84C311.638 108.92 316.211 110.46 322.091 110.46C328.438 110.46 333.011 108.967 335.811 105.98C338.705 102.9 340.011 99.0267 339.731 94.36C339.638 93.1467 340.151 92.54 341.271 92.54H357.651C358.771 92.54 359.425 93.1933 359.611 94.5C360.265 101.22 359.145 107.1 356.251 112.14C353.358 117.087 348.971 120.913 343.091 123.62C337.211 126.327 330.071 127.68 321.671 127.68ZM430.646 126C429.433 126 428.826 125.393 428.826 124.18V36.12C428.826 34.9067 429.433 34.3 430.646 34.3H447.026C448.239 34.3 448.846 34.9067 448.846 36.12V70.98H484.546V36.12C484.546 34.9067 485.153 34.3 486.366 34.3H502.606C503.819 34.3 504.426 34.9067 504.426 36.12V124.18C504.426 125.393 503.819 126 502.606 126H486.366C485.153 126 484.546 125.393 484.546 124.18V88.2H448.846V124.18C448.846 125.393 448.239 126 447.026 126H430.646Z" fill="#383838"/>
<path d="M47.22 288C45.66 288 44.88 287.22 44.88 285.66V172.44C44.88 170.88 45.66 170.1 47.22 170.1H75.84C77.04 170.1 77.94 170.64 78.54 171.72L104.28 223.56C106.08 227.28 107.88 231.06 109.68 234.9C111.48 238.62 113.1 242.22 114.54 245.7C116.1 249.18 117.36 252.42 118.32 255.42H118.86C118.62 253.02 118.44 250.44 118.32 247.68C118.2 244.8 118.08 241.92 117.96 239.04C117.84 236.04 117.72 233.16 117.6 230.4C117.6 227.52 117.6 224.88 117.6 222.48V172.44C117.6 170.88 118.32 170.1 119.76 170.1H140.1C141.66 170.1 142.44 170.88 142.44 172.44V285.66C142.44 287.22 141.66 288 140.1 288H111.84C110.52 288 109.62 287.46 109.14 286.38L84.12 236.7C82.44 233.22 80.76 229.56 79.08 225.72C77.4 221.76 75.72 217.92 74.04 214.2C72.48 210.36 71.04 206.82 69.72 203.58H69.18C69.3 206.22 69.36 209.04 69.36 212.04C69.48 214.92 69.54 217.86 69.54 220.86C69.66 223.74 69.72 226.62 69.72 229.5C69.72 232.38 69.72 235.2 69.72 237.96V285.66C69.72 287.22 68.94 288 67.38 288H47.22ZM223.229 288C221.549 288 220.949 287.16 221.429 285.48L259.589 171.9C260.069 170.7 260.969 170.1 262.289 170.1H289.829C291.149 170.1 291.989 170.7 292.349 171.9L330.869 285.48C331.109 286.2 331.049 286.8 330.689 287.28C330.449 287.76 329.909 288 329.069 288H305.849C304.529 288 303.689 287.4 303.329 286.2L282.629 216.54C281.429 212.46 280.289 208.38 279.209 204.3C278.129 200.1 277.049 195.96 275.969 191.88H275.609C274.529 195.96 273.449 200.1 272.369 204.3C271.289 208.38 270.149 212.46 268.949 216.54L248.609 286.02C248.249 287.34 247.409 288 246.089 288H223.229ZM250.949 265.14L255.269 244.62H295.769L300.449 265.14H250.949ZM426.611 288C425.171 288 424.451 287.22 424.451 285.66V192.42H394.031C392.591 192.42 391.871 191.7 391.871 190.26V172.44C391.871 170.88 392.591 170.1 394.031 170.1H480.251C481.691 170.1 482.411 170.88 482.411 172.44V190.26C482.411 191.7 481.691 192.42 480.251 192.42H450.011V285.66C450.011 287.22 449.231 288 447.671 288H426.611ZM92.04 506.16C76.32 506.16 64.38 502.44 56.22 495C48.06 487.44 43.98 475.98 43.98 460.62V388.44C43.98 386.88 44.76 386.1 46.32 386.1H67.38C68.1 386.1 68.64 386.34 69 386.82C69.48 387.18 69.72 387.72 69.72 388.44V459.72C69.72 467.4 71.52 473.4 75.12 477.72C78.72 481.92 84.36 484.02 92.04 484.02C99.84 484.02 105.48 481.92 108.96 477.72C112.56 473.4 114.36 467.4 114.36 459.72V388.44C114.36 386.88 115.14 386.1 116.7 386.1H137.76C139.32 386.1 140.1 386.88 140.1 388.44V460.8C140.1 475.8 135.96 487.14 127.68 494.82C119.52 502.38 107.64 506.16 92.04 506.16ZM232.845 504C231.285 504 230.505 503.22 230.505 501.66V388.44C230.505 386.88 231.285 386.1 232.845 386.1H272.445C288.645 386.1 300.405 389.22 307.725 395.46C315.045 401.7 318.705 410.76 318.705 422.64C318.705 430.8 316.905 437.7 313.305 443.34C309.705 448.98 304.185 452.94 296.745 455.22V455.4L325.185 501.3C325.665 502.02 325.725 502.68 325.365 503.28C325.125 503.76 324.525 504 323.565 504H299.805C298.605 504 297.645 503.46 296.925 502.38L271.185 459H256.245V501.66C256.245 503.22 255.465 504 253.905 504H232.845ZM256.245 438.84H272.085C279.285 438.84 284.565 437.58 287.925 435.06C291.285 432.54 292.965 428.52 292.965 423C292.965 417.6 291.405 413.76 288.285 411.48C285.285 409.08 280.125 407.88 272.805 407.88H256.245V438.84ZM411.615 504C410.055 504 409.275 503.22 409.275 501.66V388.44C409.275 386.88 410.055 386.1 411.615 386.1H483.435C484.995 386.1 485.775 386.88 485.775 388.44V406.26C485.775 407.7 484.995 408.42 483.435 408.42H435.015V433.98H479.115C480.675 433.98 481.455 434.76 481.455 436.32V452.88C481.455 454.32 480.675 455.04 479.115 455.04H435.015V481.68H483.435C484.995 481.68 485.775 482.4 485.775 483.84V501.66C485.775 503.22 484.995 504 483.435 504H411.615Z" fill="#23CB9F"/>
</svg>
