<svg width="545" height="550" viewBox="0 0 545 550" fill="none" xmlns="http://www.w3.org/2000/svg">
<path d="M151.5 166.75C150.333 163.083 149.25 159.333 148.25 155.5C147.417 151.667 146.583 148 145.75 144.5C145.083 141 144.417 137.833 143.75 135C143.25 132.167 142.75 129.917 142.25 128.25C141.917 129.917 141.417 132.333 140.75 135.5C140.083 138.667 139.333 142.083 138.5 145.75C137.833 149.417 137.083 153.167 136.25 157C135.417 160.833 134.5 164.333 133.5 167.5L109.75 244H76.5L29.5 74.75H70.5L86.5 138.25C87.5 142.083 88.4167 146.083 89.25 150.25C90.0833 154.417 90.9167 158.667 91.75 163C92.5833 167.167 93.3333 171.25 94 175.25C94.6667 179.083 95.25 182.5 95.75 185.5C97.0833 179.333 98.6667 171.917 100.5 163.25C102.5 154.417 104.667 146.167 107 138.5L126 74.75H159.5L179 139C181.833 148.167 184 156.917 185.5 165.25C187.167 173.417 188.667 180.5 190 186.5C190.833 180.5 191.917 173.417 193.25 165.25C194.583 157.083 196.417 148.25 198.75 138.75L214.5 74.75H256L209 244H175.75L151.5 166.75ZM435.586 72.5C448.753 72.5 460.086 74.5 469.586 78.5C479.086 82.5 486.919 88.1667 493.086 95.5C499.253 102.833 503.753 111.833 506.586 122.5C509.586 133 511.086 144.833 511.086 158C511.086 171 509.419 182.917 506.086 193.75C502.919 204.417 498.086 213.583 491.586 221.25C485.086 228.917 476.919 234.917 467.086 239.25C457.253 243.417 445.669 245.5 432.336 245.5C419.169 245.5 407.753 243.667 398.086 240C388.586 236.167 380.753 230.667 374.586 223.5C368.419 216.167 363.836 207.333 360.836 197C358.003 186.667 356.586 174.833 356.586 161.5C356.586 148.5 358.169 136.583 361.336 125.75C364.669 114.75 369.586 105.333 376.086 97.5C382.586 89.5 390.753 83.3333 400.586 79C410.586 74.6667 422.253 72.5 435.586 72.5ZM432.086 101.75C421.253 101.75 413.336 106.833 408.336 117C403.503 127 401.086 140.917 401.086 158.75C401.086 167.25 401.586 175 402.586 182C403.753 189 405.586 195.083 408.086 200.25C410.753 205.25 414.336 209.167 418.836 212C423.336 214.833 429.003 216.25 435.836 216.25C446.669 216.25 454.503 211.417 459.336 201.75C464.169 192.083 466.586 178.333 466.586 160.5C466.586 152 466.003 144.167 464.836 137C463.836 129.833 462.003 123.667 459.336 118.5C456.836 113.167 453.336 109.083 448.836 106.25C444.336 103.25 438.753 101.75 432.086 101.75Z" fill="#23CB9F"/>
<path d="M72.5 318.75C74 318.75 77 318.75 81.5 318.75C86 318.583 91 318.5 96.5 318.5C102 318.5 107.333 318.5 112.5 318.5C117.667 318.333 121.667 318.25 124.5 318.25C145.833 318.25 161.833 322.333 172.5 330.5C183.167 338.667 188.5 350.75 188.5 366.75C188.5 377.417 185.917 386.25 180.75 393.25C175.583 400.083 168.583 405.417 159.75 409.25C164.75 412.083 169.167 415.833 173 420.5C176.833 425.167 180.5 430.833 184 437.5C187.5 444 191 451.5 194.5 460C198.167 468.5 202.167 477.833 206.5 488H162.25C156.917 476.333 152.417 466.083 148.75 457.25C145.083 448.25 141.667 440.75 138.5 434.75C135.333 428.583 132.167 424 129 421C126 417.833 122.333 416.25 118 416.25H113.75V488H72.5V318.75ZM113.75 390.5H124.25C130.083 390.5 135 388.75 139 385.25C143.167 381.583 145.25 375.917 145.25 368.25C145.25 365.083 144.833 362.167 144 359.5C143.333 356.667 142.167 354.25 140.5 352.25C138.833 350.083 136.5 348.417 133.5 347.25C130.667 345.917 127.167 345.25 123 345.25H113.75V390.5Z" fill="#23CB9F"/>
<path d="M366.5 318.75H407.75V488H366.5V318.75ZM498.5 318.75C496.167 330.583 493.417 340.75 490.25 349.25C487.25 357.75 483.917 365.167 480.25 371.5C476.583 377.667 472.667 382.917 468.5 387.25C464.333 391.583 460 395.5 455.5 399L514 488H468L410.5 395.25V392.25C417.833 388.75 424 384.667 429 380C434.167 375.167 438.5 369.75 442 363.75C445.5 357.583 448.417 350.833 450.75 343.5C453.25 336 455.5 327.75 457.5 318.75H498.5Z" fill="#23CB9F"/>
</svg>
